<svg xmlns="http://www.w3.org/2000/svg" xmlns:xlink="http://www.w3.org/1999/xlink" width="400" zoomAndPan="magnify" viewBox="0 0 300 299.999988" height="400" preserveAspectRatio="xMidYMid meet" version="1.0"><defs><g/></defs><g fill="#ff3e3e" fill-opacity="1"><g transform="translate(4.27993, 208.03721)"><g><path d="M 167.3125 -37.015625 C 172.738281 -34.054688 175.453125 -29.242188 175.453125 -22.578125 C 175.453125 -16.898438 173.414062 -11.71875 169.34375 -7.03125 C 165.269531 -2.34375 161.140625 0 156.953125 0 C 154.484375 0 151.644531 -0.800781 148.4375 -2.40625 C 145.226562 -4.007812 141.894531 -5.796875 138.4375 -7.765625 L 18.140625 -78.46875 C 15.179688 -80.195312 12.957031 -82.601562 11.46875 -85.6875 C 9.988281 -88.769531 9.25 -92.039062 9.25 -95.5 C 9.25 -99.195312 9.988281 -102.523438 11.46875 -105.484375 C 12.957031 -108.453125 15.179688 -110.800781 18.140625 -112.53125 L 138.4375 -181.75 C 145.59375 -185.945312 151.269531 -188.046875 155.46875 -188.046875 C 160.40625 -188.046875 165.03125 -185.640625 169.34375 -180.828125 C 173.664062 -176.015625 175.828125 -171.015625 175.828125 -165.828125 C 175.828125 -160.148438 173.113281 -155.707031 167.6875 -152.5 L 69.21875 -95.5 Z M 167.3125 -37.015625 "/></g></g></g><g fill="#ff3e3e" fill-opacity="1"><g transform="translate(295.710157, 91.955608)"><g><path d="M -167.3125 37.015625 C -172.738281 34.054688 -175.453125 29.242188 -175.453125 22.578125 C -175.453125 16.898438 -173.414062 11.71875 -169.34375 7.03125 C -165.269531 2.34375 -161.140625 0 -156.953125 0 C -154.484375 0 -151.644531 0.800781 -148.4375 2.40625 C -145.226562 4.007812 -141.894531 5.796875 -138.4375 7.765625 L -18.140625 78.46875 C -15.179688 80.195312 -12.957031 82.601562 -11.46875 85.6875 C -9.988281 88.769531 -9.25 92.039062 -9.25 95.5 C -9.25 99.195312 -9.988281 102.523438 -11.46875 105.484375 C -12.957031 108.453125 -15.179688 110.800781 -18.140625 112.53125 L -138.4375 181.75 C -145.59375 185.945312 -151.269531 188.046875 -155.46875 188.046875 C -160.40625 188.046875 -165.03125 185.640625 -169.34375 180.828125 C -173.664062 176.015625 -175.828125 171.015625 -175.828125 165.828125 C -175.828125 160.148438 -173.113281 155.707031 -167.6875 152.5 L -69.21875 95.5 Z M -167.3125 37.015625 "/></g></g></g></svg>